# xmcd
#
# Track frame offsets:
#	155
#	14035
#	25642
#	42987
#	56697
#	70660
#	82352
#	96915
#	112290
#	129207
#
# Disc length: 1960 seconds
#
# Revision: 2
# Processed by: cddbd v1.5.1PL0 Copyright (c) Steve Scherf et al.
# Submitted via: audiograbber 1.83.01
#
DISCID=8a07a60a
DTITLE=Various Artist - Wild Wild Country
DYEAR=1900
DGENRE=
TTITLE0=Dwight Yoakam - Little Sister
TTITLE1=Waylon Jennings - Rough and Rowdy Days
TTITLE2=Billy Joe Royal - Out Of Sight And On My Mind
TTITLE3=John Anderson - Swingin'
TTITLE4=Dan Seals - Three Time Loser
TTITLE5=Steve Earle - Guitar Town
TTITLE6=t Graham Brown - Hell ANd High Water
TTITLE7=Desert Rose Band - One Step Forward
TTITLE8=Southern Pacific - Midnight Highway
TTITLE9=David Frizell - I'm Gonna Hire A wino To Decorate Our Home
EXTD=
EXTT0=
EXTT1=
EXTT2=
EXTT3=
EXTT4=
EXTT5=
EXTT6=
EXTT7=
EXTT8=
EXTT9=
PLAYORDER=
